<svg width="30" height="30" viewBox="0 0 30 30" fill="none" xmlns="http://www.w3.org/2000/svg">
<g clip-path="url(#clip0)">
<path d="M29.6567 27.9989L21.1927 19.5349C25.049 14.843 24.7866 7.87799 20.4046 3.496C15.7429 -1.16566 8.15791 -1.16566 3.49625 3.496C-1.16541 8.15766 -1.16541 15.7427 3.49625 20.4043C7.87707 24.7852 14.8412 25.0504 19.5351 21.1925L27.9991 29.6565C28.4568 30.1142 29.1989 30.1142 29.6567 29.6565C30.1144 29.1987 30.1144 28.4566 29.6567 27.9989ZM18.747 18.7467C14.9994 22.4944 8.90152 22.4943 5.15386 18.7467C1.40621 14.9991 1.40621 8.90122 5.15386 5.15356C8.9014 1.40608 14.9993 1.40579 18.747 5.15356C22.4947 8.90122 22.4947 14.9991 18.747 18.7467Z" fill="#EC5F5F"/>
<path d="M17.689 10.7783H13.1222V6.21148C13.1222 5.56413 12.5974 5.03937 11.9501 5.03937C11.3027 5.03937 10.778 5.56413 10.778 6.21148V10.7783H6.21117C5.56383 10.7783 5.03906 11.303 5.03906 11.9504C5.03906 12.5977 5.56383 13.1225 6.21117 13.1225H10.778V17.6893C10.778 18.3366 11.3027 18.8614 11.9501 18.8614C12.5974 18.8614 13.1222 18.3366 13.1222 17.6893V13.1225H17.689C18.3363 13.1225 18.8611 12.5977 18.8611 11.9504C18.8611 11.303 18.3363 10.7783 17.689 10.7783Z" fill="#EC5F5F"/>
</g>
<defs>
<clipPath id="clip0">
<rect width="30" height="30" fill="white"/>
</clipPath>
</defs>
</svg>
